<?xml version="1.0" standalone="no"?>
<!DOCTYPE svg PUBLIC "-//W3C//DTD SVG 20010904//EN"
 "http://www.w3.org/TR/2001/REC-SVG-20010904/DTD/svg10.dtd">
<svg version="1.0" xmlns="http://www.w3.org/2000/svg"
 width="904.000000pt" height="854.000000pt" viewBox="0 0 904.000000 854.000000"
 preserveAspectRatio="xMidYMid meet">
<metadata>
Created by potrace 1.15, written by Peter Selinger 2001-2017
</metadata>
<g transform="translate(0.000000,854.000000) scale(0.100000,-0.100000)"
fill="#000000" stroke="none">
<path d="M4025 8160 c-9 -14 -99 -38 -170 -45 -146 -14 -155 -16 -155 -35 0
-10 11 -32 25 -48 25 -30 33 -76 15 -87 -6 -4 -8 -11 -5 -16 4 -5 3 -15 -1
-21 -5 -7 -9 -19 -10 -28 -9 -84 -25 -183 -29 -191 -8 -12 -11 -31 -30 -159
-9 -57 -20 -107 -24 -110 -4 -3 -8 -19 -9 -37 -1 -43 -17 -70 -52 -88 -23 -12
-30 -22 -30 -45 0 -26 4 -30 28 -30 15 0 45 7 67 15 22 8 70 14 106 15 78 0
99 15 80 56 -6 14 -25 30 -41 36 -28 9 -30 14 -30 58 0 27 5 52 10 55 6 4 8
16 4 27 -4 15 -3 18 6 13 10 -6 11 0 7 26 -9 47 4 63 50 61 21 -1 53 -1 71 -2
23 0 31 -4 26 -12 -5 -8 -2 -9 10 -5 31 12 137 -59 128 -85 -1 -5 3 -8 9 -8 5
0 7 -4 4 -10 -3 -5 -2 -10 3 -10 18 0 5 -40 -21 -64 -15 -14 -27 -34 -27 -44
0 -28 25 -46 47 -34 24 13 100 26 136 23 18 -1 26 2 22 9 -5 8 5 9 30 4 30 -5
36 -4 30 6 -5 9 -4 11 4 6 6 -4 17 -3 24 3 7 5 42 11 77 13 56 3 65 6 68 23 2
15 -9 26 -40 43 -40 21 -103 96 -110 132 -2 8 -6 17 -10 20 -10 8 -157 275
-160 291 -2 8 -5 16 -8 19 -16 15 -90 149 -90 162 0 9 6 18 14 21 11 5 14 26
8 75 -2 14 -48 16 -57 2z m-186 -313 c1 15 7 21 20 20 10 0 18 -8 17 -17 -1
-8 4 -14 9 -13 6 1 10 -12 11 -27 1 -31 30 -84 42 -76 4 2 8 -13 8 -35 1 -32
-3 -39 -18 -39 -11 0 -16 4 -13 10 7 12 -30 21 -70 18 -23 -2 -29 1 -26 12 3
8 4 51 4 95 -1 53 2 71 7 55 7 -23 8 -23 9 -3z"/>
<path d="M5533 8084 c-3 -9 5 -27 22 -44 24 -25 26 -33 20 -69 -4 -23 -12 -41
-18 -41 -5 0 -8 -3 -5 -6 7 -6 -13 -85 -34 -134 -20 -47 -55 -157 -63 -200 -4
-19 -12 -41 -18 -48 -6 -7 -12 -24 -13 -36 -1 -13 -14 -46 -28 -74 -21 -41
-33 -53 -59 -60 -60 -15 -43 -82 22 -82 14 0 58 -13 96 -29 49 -20 74 -26 83
-19 19 16 14 42 -13 68 -30 28 -32 63 -6 96 10 13 19 40 19 59 0 19 9 58 21
87 11 29 25 72 31 96 6 23 16 42 21 42 6 0 9 7 5 15 -3 8 -1 15 5 15 5 0 7 11
3 26 -5 21 -4 25 6 19 10 -6 12 0 8 23 -3 19 0 29 5 25 6 -4 8 2 5 14 -10 38
32 13 49 -28 8 -21 19 -36 24 -33 5 3 6 -3 2 -12 -4 -12 -3 -15 5 -10 8 5 10
2 6 -8 -3 -9 -1 -16 6 -16 6 0 9 -4 6 -9 -4 -5 -2 -11 2 -13 9 -3 65 -117 77
-158 4 -14 20 -50 36 -81 15 -31 25 -59 22 -63 -4 -3 -1 -6 6 -6 7 0 10 -4 7
-9 -4 -5 -1 -11 5 -13 6 -2 12 -16 12 -31 0 -15 2 -25 6 -23 13 9 1 -78 -13
-92 -8 -8 -32 -18 -53 -21 -30 -5 -39 -11 -41 -31 -5 -31 21 -50 71 -50 22 0
61 -11 89 -25 87 -44 122 -27 79 38 -10 15 -17 40 -15 55 6 57 15 92 24 92 5
0 6 7 3 17 -5 12 -3 14 7 8 10 -6 12 -4 7 9 -4 10 6 58 23 110 42 126 57 176
64 209 4 15 11 27 17 27 6 0 7 5 4 10 -3 6 -1 10 4 10 6 0 10 3 9 8 -1 4 2 24
7 45 6 30 18 47 56 75 56 41 61 59 22 67 -16 4 -65 19 -111 35 -73 25 -84 27
-97 13 -19 -19 -19 -23 3 -40 11 -10 12 -12 2 -8 -8 4 -5 -2 8 -13 21 -19 33
-70 13 -58 -14 9 -22 -23 -15 -63 4 -25 2 -32 -4 -22 -8 11 -11 11 -13 -4 -2
-10 -14 -19 -26 -20 -15 -1 -19 3 -15 13 3 9 1 13 -5 9 -7 -5 -9 1 -5 15 3 13
1 19 -5 15 -7 -5 -9 1 -5 15 3 14 1 19 -6 14 -8 -4 -10 -2 -6 8 7 18 -14 59
-26 51 -6 -3 -7 1 -4 9 3 9 1 16 -5 16 -15 0 -14 37 1 46 7 5 9 2 3 -7 -4 -8
4 -1 18 14 14 16 24 34 21 41 -3 7 -41 21 -84 31 -44 10 -80 21 -80 25 0 3
-10 7 -22 7 -13 1 -24 7 -26 13 -2 5 -7 8 -11 6 -9 -6 -74 13 -149 43 -63 25
-91 27 -99 5z"/>
<path d="M6772 7578 c-8 -8 -6 -21 8 -48 28 -55 19 -102 -37 -185 -47 -72 -78
-120 -153 -237 -23 -38 -47 -68 -52 -68 -5 0 -7 -4 -4 -9 3 -5 -12 -25 -34
-45 -44 -39 -87 -47 -114 -20 -9 8 -16 12 -16 8 0 -4 -9 1 -20 11 -11 10 -17
22 -14 26 3 5 1 9 -5 9 -5 0 -8 28 -6 65 3 62 5 68 49 115 49 52 52 60 35 77
-15 15 -66 0 -98 -30 -35 -32 -126 -88 -148 -92 -42 -6 -4 -117 68 -198 21
-25 70 -66 107 -92 37 -25 83 -57 102 -71 32 -24 40 -25 100 -18 36 4 73 7 83
8 9 0 17 4 17 9 0 4 4 6 9 3 5 -4 11 -1 13 5 2 7 15 13 29 14 13 1 24 6 24 12
0 6 11 21 25 33 14 12 18 19 10 15 -8 -4 -1 6 15 20 17 15 24 24 17 20 -7 -4
5 22 27 57 22 35 50 80 61 101 12 21 27 40 35 44 8 3 12 9 9 14 -3 5 2 12 10
15 9 3 13 10 10 15 -3 5 0 9 6 9 6 0 9 4 5 9 -3 6 3 14 12 20 10 6 14 11 10
11 -12 0 11 38 50 81 30 33 42 39 74 39 32 0 39 4 39 19 0 26 -22 47 -76 71
-25 11 -91 50 -147 88 -56 37 -107 71 -113 75 -6 3 -16 1 -22 -5z"/>
<path d="M2336 7521 c-25 -22 -70 -56 -100 -78 -71 -49 -73 -71 -9 -75 41 -3
50 -7 70 -37 13 -19 26 -46 29 -60 3 -14 17 -54 30 -88 13 -34 21 -69 17 -79
-4 -11 -3 -15 4 -11 6 4 11 1 10 -6 -1 -32 4 -48 13 -42 6 4 7 -1 3 -11 -4
-12 -3 -15 5 -10 8 5 10 2 6 -8 -3 -9 -2 -16 3 -16 15 0 12 -38 -5 -52 -13
-11 -14 -11 -7 1 6 11 4 13 -8 8 -9 -3 -21 1 -29 11 -11 15 -11 16 2 7 9 -5 7
-2 -3 7 -11 10 -23 16 -27 13 -5 -3 -12 0 -16 6 -5 8 -3 9 7 4 12 -8 12 -6 0
9 -8 9 -20 15 -28 12 -8 -3 -12 -2 -9 3 3 5 -1 12 -10 15 -10 4 -13 2 -9 -7 4
-6 -3 -1 -15 13 -12 14 -19 19 -15 12 6 -11 3 -11 -13 -1 -12 7 -18 18 -15 24
4 5 3 7 -2 3 -10 -9 -32 3 -86 47 -58 50 -70 72 -52 108 17 34 10 47 -26 47
-18 0 -39 -12 -65 -40 -46 -48 -135 -118 -194 -151 -66 -37 -71 -97 -7 -85 18
4 45 2 61 -4 44 -17 553 -359 564 -379 5 -10 7 -35 3 -55 -4 -28 -2 -36 9 -36
15 0 60 31 88 61 31 34 108 89 144 104 32 13 37 20 34 43 -2 18 -10 28 -23 30
-45 8 -105 115 -88 158 4 12 3 15 -5 10 -8 -5 -10 -2 -6 8 3 9 2 16 -3 16 -5
0 -10 6 -10 13 0 6 -12 42 -27 79 -15 36 -28 80 -29 97 -1 17 -5 31 -9 31 -8
0 -59 150 -50 150 4 0 0 4 -8 10 -16 10 -20 122 -6 178 8 30 7 32 -17 32 -16
0 -44 -16 -71 -39z"/>
<path d="M3977 7033 c-9 -11 -13 -28 -10 -44 8 -41 -12 -69 -50 -69 -67 0 -97
-23 -82 -61 6 -17 62 -55 76 -51 5 1 9 -3 9 -9 0 -5 4 -8 8 -5 5 3 9 0 9 -7 0
-7 3 -25 7 -40 4 -18 2 -27 -5 -27 -9 0 -10 -19 -6 -66 4 -37 2 -74 -3 -83 -4
-9 -11 -37 -14 -61 -5 -43 -9 -63 -22 -112 -3 -13 -7 -39 -10 -58 -7 -52 -14
-80 -32 -123 -7 -16 -15 -52 -18 -80 -4 -29 -11 -58 -16 -64 -6 -7 -7 -13 -3
-13 4 0 2 -7 -5 -15 -7 -8 -10 -21 -7 -29 3 -7 0 -19 -6 -25 -6 -6 -7 -11 -2
-11 5 0 0 -7 -11 -16 -10 -8 -12 -12 -4 -9 8 4 -2 -8 -23 -27 -20 -18 -47 -47
-60 -64 -30 -42 -203 -190 -250 -215 -21 -11 -40 -26 -43 -34 -3 -7 7 -32 22
-54 24 -38 26 -45 16 -79 -6 -20 -16 -113 -21 -207 -6 -93 -17 -219 -26 -280
-33 -228 -37 -265 -31 -281 3 -8 -1 -38 -10 -65 -9 -27 -14 -55 -11 -63 3 -8
1 -30 -4 -48 -6 -18 -14 -80 -17 -138 -7 -100 -8 -105 -30 -106 -24 -1 -36 11
-37 36 0 8 -6 14 -13 12 -8 -1 -11 2 -6 9 4 7 1 17 -7 23 -8 6 -14 22 -15 36
0 14 -4 41 -8 60 -4 19 -8 41 -8 48 -2 21 -117 72 -163 72 -22 0 -45 4 -50 9
-18 15 -72 20 -87 8 -24 -19 -51 -64 -118 -194 -35 -68 -67 -123 -72 -123 -4
0 -7 -3 -7 -7 3 -20 -3 -34 -26 -59 -19 -20 -23 -33 -18 -53 9 -37 6 -63 -9
-72 -7 -5 -8 -9 -3 -9 6 0 3 -6 -6 -13 -9 -7 -16 -16 -17 -22 -1 -8 -5 -22
-16 -55 -1 -3 -8 -16 -15 -29 -13 -24 -8 -91 8 -91 4 0 8 -6 9 -12 0 -7 3 -26
6 -43 3 -16 7 -63 9 -104 2 -55 7 -76 20 -86 9 -7 17 -18 17 -24 0 -6 9 -28
19 -49 10 -20 19 -40 20 -44 1 -5 1 -9 2 -10 8 -28 11 -53 10 -103 -1 -45 2
-56 10 -45 8 11 9 7 5 -17 -3 -19 -1 -33 4 -33 6 0 10 -7 10 -15 0 -8 4 -15 9
-15 12 0 24 -35 26 -72 1 -15 4 -30 7 -34 4 -3 4 -12 1 -20 -7 -18 16 -46 31
-37 6 3 8 2 3 -2 -4 -5 0 -16 9 -26 10 -11 12 -19 4 -24 -5 -3 -8 -11 -5 -16
4 -5 -3 -9 -14 -9 -11 0 -22 4 -25 8 -7 11 -293 5 -314 -7 -13 -8 -17 -25 -19
-83 -1 -40 -4 -114 -5 -165 -2 -50 -6 -89 -10 -87 -4 3 -6 -9 -4 -26 2 -17 -1
-33 -5 -36 -5 -3 -7 -9 -4 -14 3 -5 -5 -17 -17 -27 -13 -10 -24 -25 -26 -33
-2 -8 -14 -28 -26 -45 -39 -52 -109 -193 -103 -208 3 -7 25 -20 50 -26 71 -20
106 4 166 113 18 32 42 68 55 80 18 17 18 18 1 6 -20 -15 -20 -15 -1 7 10 13
23 20 28 17 5 -3 351 -7 769 -7 l760 -2 24 23 c14 13 26 31 26 40 4 52 8 65
19 72 7 4 14 35 16 70 2 34 8 68 14 75 6 7 17 60 24 117 13 111 28 149 72 188
20 18 24 19 14 5 -11 -15 -8 -15 12 4 27 23 28 23 63 7 19 -10 33 -21 30 -27
-4 -5 1 -12 9 -15 9 -3 14 -10 11 -14 -3 -5 -2 -11 2 -13 5 -3 7 -104 6 -225
l-2 -220 35 -27 c19 -14 32 -30 29 -35 -14 -23 73 -31 312 -29 323 4 915 -9
973 -21 39 -8 207 -17 435 -25 39 -1 107 -4 152 -6 69 -2 86 0 103 16 11 10
20 15 20 11 0 -4 9 -2 20 4 32 17 27 75 -7 97 -24 16 -47 18 -174 15 -89 -2
-156 1 -167 7 -11 6 -107 14 -213 18 -107 4 -178 9 -159 11 57 5 60 22 4 23
-27 0 -62 3 -77 5 -55 9 -303 21 -367 17 -153 -8 -225 -18 -223 -30 4 -16 -9
-17 -25 -1 -8 8 -15 8 -26 -2 -13 -10 -29 -10 -83 0 -38 6 -76 14 -86 17 -28
7 -39 39 -28 78 6 24 6 58 -1 101 -7 46 -7 69 1 77 6 6 74 11 163 13 84 1 164
3 178 4 53 2 730 -21 817 -28 51 -4 102 -4 115 0 36 10 157 9 228 -3 153 -24
181 -25 243 -12 34 7 85 13 113 13 44 0 52 3 64 25 13 24 11 28 -30 70 -33 33
-55 47 -92 55 -58 12 -81 13 -75 2 3 -4 -9 -7 -26 -7 -20 0 -31 -5 -30 -12 2
-8 -4 -10 -14 -6 -9 4 -14 2 -11 -3 3 -5 -11 -9 -33 -9 -21 -1 -36 1 -34 4 3
2 0 10 -6 17 -8 10 -6 22 10 47 11 19 19 36 17 38 -2 2 -6 21 -9 42 -4 26 -2
35 5 31 8 -5 9 -1 5 10 -4 9 0 30 8 45 55 107 66 200 66 539 -1 228 2 282 13
282 17 0 36 -43 36 -81 0 -16 7 -46 15 -66 18 -42 19 -91 4 -130 -7 -17 -12
-100 -13 -213 -1 -182 -2 -186 -29 -240 -15 -30 -29 -75 -30 -98 -2 -37 1 -46
23 -61 14 -10 42 -18 62 -18 28 -1 43 -8 61 -28 22 -26 26 -27 59 -16 72 24
73 27 73 273 0 121 3 209 7 196 9 -32 8 85 -1 149 -4 32 -4 50 2 46 6 -4 8 5
5 21 -3 14 -1 26 3 26 16 0 9 57 -8 71 -15 12 -16 12 -8 -1 5 -10 5 -12 -2 -5
-11 11 -31 69 -88 248 -20 64 -44 126 -54 137 -13 16 -30 20 -89 21 -95 2
-102 -5 -74 -73 48 -117 36 -161 -22 -81 -30 41 -33 50 -21 59 8 6 15 17 15
25 -1 10 -5 8 -15 -5 -8 -11 -15 -18 -16 -15 -3 19 -9 40 -23 77 -8 24 -11 40
-6 37 4 -3 4 12 -2 32 -13 49 -19 58 -28 43 -5 -7 -9 0 -12 18 -2 18 0 28 5
25 5 -3 7 3 3 13 -3 11 -10 40 -16 66 -12 55 -30 98 -42 98 -4 0 -8 6 -8 13 0
6 -15 22 -33 35 -34 23 -77 30 -77 12 0 -5 -12 -12 -27 -16 -48 -10 -83 -26
-77 -35 3 -5 -1 -6 -9 -4 -15 7 -38 -17 -58 -60 -14 -30 -63 -48 -52 -19 3 8
0 14 -6 14 -6 0 -8 7 -5 15 4 8 1 15 -5 15 -6 0 -8 6 -5 14 3 8 1 17 -5 20 -6
4 -8 20 -4 38 4 22 3 29 -5 24 -8 -5 -10 -2 -6 8 3 9 1 16 -6 16 -6 0 -8 5 -5
10 3 6 1 10 -4 10 -6 0 -10 5 -9 12 2 6 -15 21 -37 32 -38 19 -62 20 -485 22
-245 1 -494 3 -555 4 -60 1 -163 -1 -227 -4 -67 -3 -128 -2 -142 4 -14 5 -41
10 -59 12 -22 1 -34 7 -35 17 -6 60 1 144 14 190 17 59 20 117 10 196 -4 28
-3 70 1 94 5 25 4 80 -1 123 -8 74 -8 80 13 102 21 23 22 25 7 55 -18 34 -135
133 -148 125 -4 -3 -8 0 -8 6 0 6 -4 9 -9 6 -5 -4 -24 13 -43 36 -18 23 -26
39 -18 35 8 -5 5 0 -7 9 -13 9 -23 20 -23 25 0 5 -15 23 -32 40 -18 17 -26 28
-18 24 8 -4 6 2 -5 12 -11 10 -19 26 -17 37 2 10 0 16 -5 13 -4 -3 -7 87 -6
199 1 112 -1 204 -5 204 -4 0 -5 48 -3 107 2 60 4 153 5 208 1 87 3 101 20
111 10 6 27 9 36 7 11 -3 24 4 33 17 23 32 4 78 -39 96 -35 15 -54 40 -54 72
0 29 -38 72 -64 72 -13 0 -30 -8 -39 -17z m-72 -1375 c14 -6 36 -30 49 -53 33
-56 46 -65 103 -73 l48 -7 -1 -105 c-2 -138 -21 -427 -35 -515 -16 -104 -14
-197 6 -235 20 -40 16 -58 -40 -175 -23 -49 -59 -133 -80 -185 -43 -111 -71
-159 -122 -217 -41 -45 -49 -45 -73 2 -13 26 -22 30 -55 30 l-38 0 -24 -75
c-27 -86 -23 -104 31 -145 25 -19 44 -25 68 -23 l33 3 3 77 c3 69 5 77 22 75
16 -1 35 -23 30 -35 -1 -2 10 -12 24 -23 l25 -20 -4 -187 c-2 -103 -6 -207 -9
-231 -4 -46 -24 -71 -57 -71 -35 0 -40 -26 -46 -215 -3 -102 -10 -188 -15
-191 -4 -3 -93 -7 -197 -9 -235 -4 -233 -5 -209 87 16 60 25 120 48 343 6 55
21 195 35 310 13 116 26 260 30 320 3 61 12 153 20 205 8 52 19 219 25 370 6
151 17 311 25 355 8 44 15 105 15 136 0 30 7 77 16 104 15 42 15 58 4 131 -19
129 -21 127 119 123 l116 -4 1 35 c1 55 2 57 37 79 38 24 39 24 72 9z m375
-149 c8 -14 9 -66 4 -167 -24 -489 -27 -528 -46 -549 -9 -10 -21 -30 -27 -46
-11 -28 -35 -36 -44 -14 -2 6 4 73 14 147 17 118 22 241 29 648 0 1 13 2 30 2
19 0 33 -7 40 -21z m1104 -865 c9 -3 13 -11 10 -16 -4 -6 -1 -9 7 -6 8 3 19
-2 25 -10 6 -8 20 -16 32 -17 29 -2 52 -24 45 -42 -4 -10 -2 -14 4 -10 6 4 11
1 10 -6 0 -6 1 -21 2 -32 1 -17 3 -18 12 -5 8 11 9 4 5 -28 -7 -47 1 -95 15
-86 5 3 6 -2 3 -10 -3 -9 -1 -16 6 -16 6 0 8 -4 5 -10 -3 -5 -1 -10 5 -10 6 0
8 -4 5 -10 -3 -5 -2 -10 3 -10 5 0 19 -23 31 -50 27 -64 27 -176 -1 -194 -9
-5 -20 -8 -23 -4 -11 11 -34 124 -33 164 1 52 -3 64 -32 92 -14 14 -18 21 -10
16 9 -5 4 2 -10 15 -14 13 -19 20 -13 17 9 -5 11 -2 7 8 -3 9 -11 13 -16 10
-6 -4 -8 2 -3 15 3 11 2 21 -3 21 -6 0 -8 9 -5 20 3 11 1 20 -5 20 -6 0 -8 10
-4 22 3 14 1 19 -6 14 -8 -4 -10 -2 -6 8 7 19 -55 68 -92 71 -39 4 -84 22 -84
34 0 24 74 40 114 25z m-186 -46 c2 -9 -12 -34 -31 -55 -100 -110 -229 -299
-262 -383 -51 -126 -36 -462 30 -677 13 -43 43 -121 68 -173 24 -52 47 -113
51 -135 4 -21 16 -51 27 -66 39 -55 31 -59 -100 -59 -92 0 -121 3 -131 15 -8
10 -11 57 -8 164 l3 150 -38 39 -38 39 -222 8 c-122 5 -292 9 -377 9 -85 1
-165 5 -177 9 -21 8 -23 14 -23 90 0 76 16 286 26 333 5 28 24 35 66 24 18 -4
185 -11 370 -14 l338 -6 15 23 c8 13 19 59 25 102 8 55 21 100 44 145 18 36
61 120 95 188 47 93 78 138 125 188 53 56 67 65 92 62 17 -2 30 -10 32 -20z
m810 -174 c2 -11 -24 -74 -57 -140 -139 -275 -148 -508 -29 -762 26 -57 32
-83 38 -179 4 -62 11 -118 17 -125 6 -7 15 -38 21 -68 6 -30 14 -67 17 -82 9
-36 -19 -51 -66 -37 -19 5 -130 9 -257 8 -181 -2 -226 0 -237 12 -12 11 -12
18 -2 36 42 74 81 155 97 198 48 129 63 344 35 490 -14 73 -13 80 6 121 10 24
24 55 29 69 10 26 34 33 45 14 11 -16 57 -31 81 -25 22 6 25 13 64 193 7 29
29 79 49 110 20 32 51 89 69 126 27 58 35 68 54 65 14 -2 24 -11 26 -24z
m-2691 -269 c9 -15 -4 -191 -32 -455 -9 -80 -20 -206 -25 -280 -13 -181 -39
-352 -57 -367 -41 -33 -52 15 -33 144 25 180 40 326 40 403 0 47 5 103 10 125
6 22 14 110 19 195 7 121 13 165 30 203 21 49 34 58 48 32z m978 -780 c252 -5
403 -19 423 -39 18 -17 21 -518 4 -539 -14 -17 -5 -80 10 -71 6 4 8 -2 4 -14
-4 -11 -2 -23 4 -27 5 -3 10 -11 10 -16 0 -6 -5 -7 -12 -3 -7 5 -9 2 -5 -9 4
-12 2 -14 -10 -10 -11 4 -14 2 -9 -5 5 -9 -6 -12 -38 -12 -64 0 -81 20 -83 95
-1 43 1 53 7 35 5 -17 8 7 9 73 1 53 -3 97 -8 97 -5 0 -12 35 -16 78 -5 48
-16 94 -30 122 -23 46 -24 46 -155 109 -25 12 -98 13 -105 2 -3 -6 -22 -18
-41 -26 -59 -25 -103 -65 -148 -139 -42 -68 -44 -76 -55 -187 -6 -63 -11 -135
-11 -160 0 -57 -11 -68 -66 -61 -28 3 -44 1 -44 -6 0 -6 -9 -10 -19 -9 -11 0
-17 5 -14 11 4 5 -1 7 -11 3 -10 -4 -15 -3 -11 3 3 6 1 10 -4 10 -13 0 -15 46
-3 54 4 2 9 147 10 322 1 243 5 320 14 326 7 5 49 6 93 3 44 -3 184 -8 310
-10z m-560 -459 c13 -20 14 -40 7 -130 -5 -59 -14 -112 -20 -118 -10 -10 -560
-23 -967 -23 l-150 0 1 45 c1 81 12 221 17 227 3 3 232 5 509 4 277 0 512 4
523 9 36 16 64 11 80 -14z"/>
<path d="M3752 5346 c-30 -8 -60 -20 -67 -27 -7 -8 -18 -67 -24 -132 -11 -104
-11 -121 3 -142 28 -43 64 -54 162 -50 78 3 91 7 107 27 15 17 18 33 14 68 -3
25 -1 65 5 89 10 39 9 49 -11 85 -22 42 -72 82 -113 90 -13 3 -47 -1 -76 -8z"/>
<path d="M3692 4738 c-16 -20 -32 -89 -32 -139 0 -41 4 -51 35 -78 42 -36 37
-36 100 -13 75 26 75 27 75 95 0 67 -20 110 -62 133 -30 17 -103 18 -116 2z"/>
<path d="M8022 6417 c-6 -6 -12 -28 -14 -47 -3 -40 -30 -60 -203 -157 -55 -30
-129 -74 -165 -96 -36 -22 -71 -40 -77 -40 -7 0 -13 -4 -13 -8 0 -8 -40 -24
-52 -21 -5 1 -8 -3 -8 -10 0 -6 -3 -9 -6 -5 -4 3 -13 0 -21 -8 -20 -20 -46
-19 -85 4 -17 11 -35 18 -40 15 -18 -11 -6 -41 50 -125 94 -144 95 -144 226
-391 32 -60 62 -108 67 -108 5 0 17 5 27 10 9 6 78 23 152 38 132 26 135 28
138 55 l3 27 -101 0 c-80 0 -102 3 -106 15 -4 8 -10 13 -15 10 -24 -16 -158
83 -144 106 4 5 1 9 -5 9 -6 0 -8 5 -5 10 3 6 1 10 -5 10 -6 0 -8 5 -5 10 3 6
1 10 -4 10 -15 0 -9 43 9 58 13 12 13 13 0 6 -13 -7 -13 -5 -1 9 7 9 17 15 21
12 4 -3 11 2 14 11 4 9 9 14 12 11 3 -3 14 3 25 14 11 11 24 17 29 14 6 -4 10
-1 10 5 0 6 5 8 10 5 6 -3 10 -1 10 6 0 7 3 9 7 6 3 -4 13 2 21 14 8 11 20 18
26 16 7 -3 23 4 37 15 13 11 18 16 10 12 -9 -4 -12 -3 -7 4 4 6 14 8 23 5 12
-5 14 -3 8 8 -7 11 -5 11 10 -1 24 -19 55 -49 54 -52 0 -2 5 -16 11 -33 15
-40 5 -83 -26 -116 -26 -27 -31 -79 -8 -86 5 -2 35 19 65 47 67 63 129 114
129 106 0 -3 8 2 18 12 11 9 17 20 15 25 -2 4 1 7 7 7 6 0 10 10 8 23 -3 20
-9 22 -55 22 -38 0 -58 6 -70 19 -13 13 -14 17 -3 11 8 -4 3 3 -13 16 -25 23
-26 26 -13 51 8 15 11 29 8 33 -4 3 2 3 12 -1 15 -6 17 -4 11 6 -5 8 -4 11 3
7 14 -9 43 3 36 14 -3 5 3 6 12 2 10 -4 15 -2 11 3 -3 5 3 10 13 10 10 0 16
-5 13 -10 -4 -5 1 -7 10 -3 9 3 19 1 23 -5 5 -7 2 -8 -7 -3 -8 4 -3 -3 11 -16
14 -13 19 -19 11 -14 -12 9 -12 7 -1 -12 8 -12 18 -19 24 -16 5 4 7 -1 3 -10
-3 -10 -3 -17 2 -17 12 0 12 -159 0 -183 -6 -12 -20 -32 -31 -43 -21 -23 -22
-75 -2 -81 6 -2 43 30 83 71 40 40 83 79 96 86 32 17 54 69 34 81 -8 5 -19 12
-25 16 -21 14 -194 304 -263 441 -31 61 -49 74 -69 49z"/>
<path d="M1000 6087 c0 -22 -94 -207 -134 -262 -20 -27 -36 -56 -36 -63 0 -18
25 -25 48 -13 41 22 83 22 128 0 24 -11 44 -26 44 -32 0 -5 3 -7 6 -4 9 9 224
-103 224 -116 0 -6 3 -8 6 -4 9 8 84 -31 84 -43 0 -6 3 -9 8 -8 14 4 52 -13
52 -23 0 -6 4 -8 8 -5 14 8 82 -43 92 -70 5 -13 7 -31 3 -40 -7 -18 13 -35 33
-27 8 3 38 54 68 114 30 60 69 130 86 155 46 68 36 132 -14 85 -23 -22 -86
-29 -86 -10 0 5 -4 7 -10 4 -5 -3 -10 -1 -10 5 0 6 -4 8 -10 5 -12 -7 -70 22
-70 36 0 6 -4 7 -10 4 -5 -3 -10 -1 -10 6 0 7 -3 10 -6 6 -7 -7 -133 58 -149
76 -5 7 -19 14 -30 15 -22 4 -86 41 -96 55 -3 5 -9 8 -13 7 -4 0 -34 14 -67
31 -50 27 -65 41 -83 78 -20 44 -56 68 -56 38z"/>
<path d="M1020 4150 c-14 -4 -45 -13 -68 -20 -58 -15 -126 -80 -165 -155 -26
-51 -30 -71 -31 -135 0 -41 4 -97 8 -125 5 -27 11 -86 15 -130 5 -72 8 -80 28
-83 14 -2 23 3 28 17 8 25 41 35 118 35 31 1 57 3 57 6 0 14 45 7 81 -12 30
-15 43 -17 53 -9 11 10 11 18 -1 54 -8 23 -16 80 -16 127 -2 80 -3 85 -24 88
-16 2 -23 -2 -23 -12 0 -31 -49 -50 -127 -49 -52 1 -71 -2 -66 -11 4 -6 -1 -5
-10 3 -9 7 -17 10 -17 6 0 -4 -7 -2 -16 6 -11 9 -14 25 -10 63 4 45 10 56 51
92 50 45 106 67 144 57 14 -3 22 -2 19 3 -5 7 82 11 102 4 3 -1 16 -4 29 -6
51 -9 91 -68 91 -134 0 -54 -21 -102 -53 -119 -31 -17 -42 -51 -22 -71 13 -13
18 -12 44 3 16 9 46 17 68 17 55 0 67 11 59 54 -3 20 -9 51 -12 70 -3 20 -1
36 5 40 15 10 14 56 -3 87 -7 14 -16 38 -20 53 -11 46 -71 132 -107 153 -57
35 -156 50 -209 33z"/>
<path d="M8409 4101 c-35 -32 -115 -61 -177 -64 -22 0 -38 -5 -35 -11 4 -5 -5
-6 -21 -2 -20 5 -26 3 -21 -5 5 -8 1 -9 -15 -4 -14 5 -20 3 -16 -3 6 -10 -111
-29 -141 -23 -7 1 -13 -3 -13 -9 0 -15 -39 -12 -56 5 -9 8 -24 15 -34 15 -15
0 -19 -10 -23 -57 -2 -32 -8 -71 -11 -88 -4 -16 -9 -52 -13 -78 l-6 -48 50 7
c48 6 56 3 234 -85 139 -70 193 -101 219 -131 25 -28 44 -40 62 -40 l27 0 0
95 c0 83 -2 95 -17 95 -9 0 -26 -7 -36 -15 -28 -21 -54 -18 -111 13 -34 18
-51 34 -53 50 -2 12 2 22 9 22 7 0 10 3 7 6 -4 3 3 15 14 26 11 11 17 26 14
33 -2 7 5 21 17 32 22 18 22 18 7 -2 -8 -12 -4 -10 9 5 14 14 28 24 33 23 4
-2 8 2 8 7 0 16 19 11 37 -9 9 -11 20 -18 25 -15 4 3 8 0 8 -6 0 -6 5 -8 10
-5 6 3 10 1 10 -5 0 -6 10 -10 22 -8 21 3 22 8 23 108 1 58 5 123 9 146 11 55
-11 65 -55 25z"/>
<path d="M7793 3452 c-6 -4 -18 -34 -28 -67 -9 -33 -25 -80 -34 -105 -22 -59
-18 -70 29 -70 21 0 43 -6 50 -15 7 -8 9 -15 6 -15 -4 0 3 -10 16 -22 13 -13
17 -18 8 -13 -9 6 -4 -1 11 -15 34 -31 25 -55 -20 -55 -16 0 -27 4 -24 9 3 5
0 6 -8 4 -8 -3 -20 2 -27 11 -8 10 -11 10 -6 2 5 -10 3 -12 -5 -7 -7 5 -10 11
-7 14 10 9 -26 42 -46 42 -17 0 -45 -46 -34 -57 7 -8 -21 -98 -42 -132 -15
-26 -18 -39 -11 -53 10 -19 49 -25 49 -8 0 11 73 14 84 3 3 -4 14 -7 24 -8 32
-3 267 -78 270 -87 2 -4 8 -6 13 -3 11 8 58 -17 93 -49 15 -15 33 -25 40 -23
6 2 14 26 18 53 3 27 16 73 27 102 27 68 27 99 -1 108 -13 4 -25 1 -32 -7 -12
-15 -79 -22 -70 -8 7 11 -28 24 -88 33 -46 7 -60 16 -71 47 -4 13 -1 16 16 12
18 -4 19 -3 7 6 -11 8 -2 9 35 5 29 -3 75 0 111 9 55 13 62 13 73 -2 8 -11 10
-12 5 -1 -4 8 3 5 15 -7 23 -25 46 -29 56 -12 4 6 15 44 25 85 10 42 26 87 35
100 20 31 16 68 -7 72 -9 2 -30 -6 -45 -17 -26 -18 -102 -29 -235 -33 -15 -1
-25 -4 -23 -8 4 -7 -59 -23 -98 -24 -10 -1 -21 -5 -25 -11 -4 -5 -15 -11 -25
-11 -29 -3 -59 70 -65 153 -4 69 -15 90 -39 75z"/>
<path d="M1130 3262 c-91 -37 -149 -97 -185 -191 -27 -73 -27 -73 -11 -138 19
-80 67 -165 109 -197 18 -13 56 -36 85 -51 47 -25 61 -27 125 -23 72 5 126 28
182 79 11 10 25 18 30 18 6 1 10 4 10 9 0 4 16 34 35 67 31 54 35 67 34 131
-2 124 -67 227 -182 287 -86 46 -138 48 -232 9z m281 -162 c59 -43 46 -116
-32 -183 -95 -82 -271 -116 -324 -62 -36 35 -35 102 1 145 15 17 28 29 31 26
2 -2 15 6 29 19 37 34 150 74 212 74 39 1 62 -5 83 -19z"/>
<path d="M7466 2609 c-8 -19 -30 -54 -48 -79 -108 -142 -115 -233 -26 -316 61
-58 111 -69 171 -37 18 9 36 16 40 15 5 -1 6 1 4 5 -3 5 7 17 22 28 26 19 26
19 12 0 -7 -11 13 7 45 40 33 34 55 54 49 45 -5 -9 -1 -7 10 5 25 25 69 25 93
1 12 -14 13 -17 2 -12 -9 5 -8 2 3 -7 19 -16 23 -47 6 -47 -5 0 -7 -4 -4 -10
3 -5 1 -10 -5 -10 -6 0 -9 -4 -6 -9 9 -14 -37 -73 -73 -95 -42 -24 -113 -26
-136 -3 -19 19 -18 19 -39 11 -25 -9 -19 -40 12 -60 46 -31 155 -84 172 -84 9
0 22 12 29 27 7 15 37 60 67 99 68 91 94 156 94 237 0 72 -20 108 -92 165 -37
29 -48 33 -95 31 -29 -1 -53 -7 -53 -12 0 -6 -3 -8 -6 -4 -4 3 -15 -4 -26 -16
-11 -12 -16 -15 -12 -7 4 8 -23 -17 -60 -57 -47 -51 -72 -70 -83 -66 -9 4 -14
2 -11 -3 4 -5 -7 -9 -22 -9 -15 0 -26 3 -23 8 2 4 -3 7 -12 7 -9 0 -13 5 -10
10 3 6 1 10 -4 10 -6 0 -11 7 -11 15 0 8 4 15 10 15 5 0 7 6 4 13 -2 7 5 22
17 33 15 12 20 14 15 4 -5 -8 2 -4 15 10 13 14 20 19 14 10 -5 -8 2 -5 15 7
17 15 41 23 75 25 42 3 50 6 50 23 0 24 -76 64 -136 72 -37 5 -40 4 -53 -28z"/>
<path d="M1682 2578 c-5 -7 -12 -22 -14 -33 -4 -22 -85 -85 -199 -155 -40 -25
-89 -56 -109 -70 -25 -17 -50 -24 -85 -25 -64 -2 -68 -18 -20 -75 40 -48 75
-111 75 -135 0 -21 44 -20 61 2 12 14 12 16 -1 9 -8 -4 -6 0 4 8 11 9 16 16
11 16 -5 0 2 11 15 25 13 14 29 24 36 21 6 -2 25 8 41 22 16 15 20 20 9 12
-21 -15 -21 -15 -2 7 10 13 22 20 27 17 5 -3 17 -1 27 5 14 7 18 6 18 -7 1 -9
5 -26 9 -36 6 -13 5 -17 -2 -13 -10 6 -48 -65 -48 -90 0 -8 -14 -25 -30 -39
-17 -14 -24 -22 -16 -18 10 5 12 3 6 -6 -5 -8 -20 -10 -40 -7 -57 9 -57 -9 -2
-93 29 -43 61 -93 72 -112 25 -41 55 -50 55 -15 0 13 11 43 23 68 56 105 84
149 91 142 4 -4 4 0 0 10 -4 11 0 19 9 23 9 3 13 12 10 20 -3 8 -1 14 5 14 5
0 9 7 8 16 0 9 7 18 17 19 10 2 14 -1 10 -8 -4 -6 0 -8 10 -4 9 3 19 2 22 -4
4 -5 10 -7 15 -4 5 3 11 2 13 -2 3 -5 26 -7 51 -5 34 3 54 12 77 33 46 43 37
72 -80 249 -56 84 -106 170 -111 191 -9 31 -15 39 -34 39 -13 0 -28 -6 -34
-12z m130 -248 c24 -29 23 -46 -5 -73 -17 -16 -18 -18 -2 -7 19 15 20 14 3 -6
-16 -18 -24 -19 -70 -12 -29 5 -60 10 -68 10 -18 3 -25 44 -10 53 6 4 8 11 5
16 -3 5 2 6 11 2 12 -4 15 -3 10 5 -4 7 -2 10 6 7 8 -3 22 2 33 11 11 8 14 12
6 8 -8 -4 -12 -3 -8 2 11 18 70 8 89 -16z"/>
<path d="M2538 2248 c-3 -7 6 -26 18 -41 23 -27 24 -35 24 -192 l0 -163 35
-31 c45 -39 65 -44 170 -40 l85 4 47 48 48 47 -3 143 c-3 138 -2 143 22 175
37 51 28 59 -67 57 -69 -2 -83 -5 -85 -19 -2 -10 3 -25 12 -35 20 -22 35 -102
38 -208 3 -70 0 -85 -18 -110 -12 -15 -31 -29 -44 -31 -34 -5 -70 7 -70 23 0
8 -5 15 -11 15 -5 0 -7 5 -4 10 3 6 1 10 -4 10 -7 0 -10 30 -9 83 l1 82 7 -60
c7 -58 7 -57 6 22 0 44 3 79 7 76 5 -3 7 5 6 18 -2 13 0 30 4 37 5 6 5 12 1
12 -3 0 1 11 10 24 24 37 11 59 -28 49 -40 -10 -122 -10 -162 0 -23 6 -33 5
-36 -5z"/>
<path d="M3245 2251 c-3 -6 1 -34 10 -62 10 -29 16 -74 14 -107 -1 -31 1 -65
6 -75 11 -25 -3 -136 -21 -161 -21 -30 -17 -53 9 -58 12 -2 87 -4 167 -4 132
1 148 3 182 24 57 36 108 97 108 132 0 17 4 30 8 30 14 0 -18 111 -42 147 -25
36 -88 90 -114 97 -10 2 -34 7 -55 11 -21 3 -36 9 -33 13 2 4 -39 7 -92 7 -54
0 -107 4 -118 9 -14 5 -24 4 -29 -3z m254 -100 c11 -11 22 -17 24 -14 3 2 9
-6 13 -19 8 -23 10 -31 12 -56 1 -7 6 -11 10 -8 16 9 8 -118 -8 -132 -13 -12
-13 -13 0 -6 8 4 -3 -9 -24 -30 -31 -29 -47 -36 -70 -34 l-31 3 -1 150 c-1 83
1 153 3 158 8 14 53 7 72 -12z"/>
<path d="M4660 2251 c0 -6 12 -32 26 -58 25 -47 26 -50 19 -189 l-7 -140 27
-32 c32 -38 77 -52 170 -52 91 0 131 20 168 86 26 48 27 52 21 160 -7 116 3
177 31 188 21 8 19 34 -2 39 -32 8 -153 1 -163 -9 -7 -7 -5 -18 8 -35 26 -32
31 -63 37 -197 4 -110 3 -115 -20 -138 -14 -14 -36 -24 -52 -24 -32 0 -76 27
-68 41 4 5 3 9 -2 9 -4 0 -9 46 -9 103 -1 88 -1 94 6 42 l8 -60 -2 77 c0 42 2
74 7 71 6 -3 11 32 5 40 -1 1 7 17 17 34 28 48 13 58 -64 42 -47 -9 -71 -9
-100 0 -47 13 -61 14 -61 2z"/>
<path d="M6205 2250 c-4 -6 -8 -38 -8 -71 -1 -41 -7 -65 -17 -72 -8 -7 -16
-23 -18 -37 -7 -56 -66 -183 -100 -216 -21 -20 -32 -39 -29 -48 7 -19 67 -30
114 -23 50 8 58 20 38 51 -19 28 -15 77 7 100 13 12 60 17 52 5 -6 -10 26 -20
38 -12 6 3 8 1 5 -4 -4 -6 0 -14 9 -17 10 -4 13 -2 8 7 -6 9 -4 9 8 -1 17 -13
22 -62 6 -62 -5 0 -6 -4 -3 -10 3 -5 1 -10 -4 -10 -15 0 -14 -27 2 -37 6 -4
60 -9 118 -10 123 -3 137 6 91 60 -33 38 -63 104 -65 141 -1 14 -6 26 -10 26
-5 0 -5 5 -2 10 3 6 2 10 -3 10 -5 0 -19 34 -31 75 -21 69 -21 76 -6 91 9 9
15 24 13 33 -3 13 -18 16 -88 16 -47 1 -92 4 -101 9 -10 4 -20 3 -24 -4z"/>
<path d="M3985 2242 c-2 -2 1 -18 6 -35 10 -36 13 -324 3 -374 -8 -42 11 -51
109 -49 66 1 80 4 89 20 8 14 8 17 -2 11 -8 -5 -11 -3 -8 6 3 8 -2 20 -9 28
-8 8 -12 23 -9 35 3 12 6 37 6 57 0 37 22 60 36 37 5 -7 2 -8 -7 -4 -8 4 -3
-2 11 -14 14 -12 18 -19 10 -15 -10 4 -9 2 2 -8 10 -8 15 -17 11 -20 -3 -4 -2
-7 3 -7 5 0 8 -24 7 -52 0 -29 3 -57 7 -63 5 -5 53 -10 107 -10 87 0 98 2 101
18 2 11 -7 31 -21 45 -29 32 -90 145 -74 136 7 -3 1 4 -13 15 -14 11 -20 21
-15 21 6 0 3 5 -5 10 -20 13 -2 44 29 48 11 2 21 8 21 14 0 5 9 22 19 37 25
35 11 67 -43 97 -37 21 -52 22 -204 21 -90 -1 -165 -3 -167 -5z"/>
<path d="M5487 2231 c-26 -10 -61 -30 -77 -46 -34 -32 -74 -129 -67 -160 31
-131 56 -168 142 -213 46 -23 62 -26 191 -28 77 -1 147 2 155 7 12 7 10 15 -8
48 -28 48 -32 131 -7 151 10 9 14 26 12 49 l-3 36 -53 2 c-29 1 -50 -2 -47 -7
3 -4 -14 -4 -37 2 -23 5 -47 7 -55 4 -20 -8 -15 -54 8 -77 18 -18 20 -30 17
-70 -3 -27 -11 -55 -18 -64 -20 -24 -57 -18 -92 16 -18 17 -26 28 -18 24 8 -4
6 2 -6 12 -18 16 -21 31 -23 106 -1 58 2 87 9 87 6 0 8 4 5 10 -3 5 9 19 27
30 50 32 109 23 154 -24 19 -20 39 -36 44 -36 16 0 22 46 13 102 l-8 53 -105
1 c-78 2 -117 -2 -153 -15z"/>
<path d="M7060 2043 c-39 -45 -48 -77 -22 -79 6 -1 23 -2 37 -3 14 0 37 -12
50 -25 13 -13 26 -22 29 -19 2 3 2 -5 -1 -17 -5 -19 -11 -22 -44 -17 -22 3
-39 1 -39 -3 0 -12 -49 -5 -63 9 -7 7 -12 17 -12 24 0 17 -35 21 -49 6 -8 -9
-8 -10 4 -3 26 14 -99 -123 -138 -152 -47 -34 -62 -53 -62 -76 0 -15 8 -18 46
-18 42 0 51 -5 107 -57 212 -196 257 -247 257 -293 0 -33 25 -23 79 31 34 34
51 60 51 76 0 23 -2 24 -43 18 -43 -7 -43 -6 -142 81 -55 48 -99 91 -97 96 1
5 -1 7 -6 4 -5 -3 -24 11 -43 31 -19 20 -28 32 -20 28 11 -6 13 -4 8 8 -5 14
0 17 24 17 18 0 28 -4 24 -10 -4 -6 19 -11 59 -12 36 -1 80 -2 96 -3 17 -1 30
2 30 7 0 4 15 7 33 7 l32 -1 -30 -8 c-20 -6 6 -8 73 -7 119 2 135 -7 125 -69
-5 -31 -4 -34 20 -34 18 0 38 15 70 52 53 61 53 88 1 88 -29 0 -49 14 -132 89
-177 162 -210 197 -223 240 -16 54 -37 53 -89 -6z"/>
<path d="M2145 1950 c-3 -5 -4 -14 -1 -19 14 -23 -24 -75 -147 -201 -139 -143
-178 -172 -214 -163 -18 4 -23 1 -23 -14 0 -27 103 -123 131 -123 20 0 21 4
15 40 -7 45 2 58 128 185 38 39 69 74 68 78 -1 4 5 10 13 13 8 3 13 10 10 14
-3 4 2 11 11 14 8 3 12 2 9 -4 -3 -6 1 -10 9 -10 14 0 15 -24 10 -192 -6 -236
-14 -263 -81 -263 -23 0 -44 -3 -48 -7 -11 -10 97 -128 117 -128 13 0 18 8 18
28 0 31 2 35 54 95 22 26 44 43 49 40 6 -3 7 -2 4 4 -7 11 175 194 211 212 12
7 31 9 42 6 49 -15 23 60 -35 103 -58 42 -73 42 -72 -4 1 -19 -5 -39 -12 -43
-7 -5 -12 -12 -10 -17 1 -5 -10 -16 -25 -24 -24 -13 -28 -13 -36 0 -14 21 -13
110 1 90 8 -12 9 -9 7 12 -2 15 -1 27 2 26 3 -1 15 4 28 11 39 21 37 23 -86
130 -34 29 -71 69 -81 87 -20 33 -53 45 -66 24z"/>
<path d="M6463 1486 c-50 -44 -216 -154 -270 -178 -53 -23 -58 -54 -14 -69 33
-12 72 -57 148 -169 27 -41 65 -97 84 -125 25 -37 35 -64 39 -105 6 -67 16
-68 102 -5 33 25 115 79 181 121 67 43 125 82 130 88 8 12 6 19 -16 81 -8 22
-17 56 -20 76 -6 49 -24 79 -47 79 -28 0 -39 -27 -28 -73 15 -66 0 -125 -41
-169 -20 -22 -43 -40 -51 -41 -8 -2 -20 -6 -26 -9 -6 -4 -29 9 -50 29 -21 19
-32 32 -24 28 8 -4 4 3 -10 16 -14 13 -19 20 -11 14 10 -7 10 -2 -3 18 -17 25
-35 40 -20 15 4 -7 3 -8 -4 -4 -6 4 -9 13 -6 21 4 8 0 17 -8 20 -20 8 -15 61
6 57 9 -2 16 1 16 6 0 15 63 12 87 -4 12 -7 31 -14 43 -14 28 0 27 43 -2 63
-13 9 -47 38 -77 66 -43 40 -57 48 -68 39 -9 -7 -12 -21 -8 -35 3 -14 1 -23
-6 -23 -6 0 -9 -7 -6 -15 8 -19 -9 -29 -47 -28 -23 0 -30 4 -28 17 2 9 -3 19
-10 21 -16 6 -18 49 -4 62 6 5 6 2 1 -7 -5 -8 4 -3 19 12 16 15 32 25 37 23 4
-3 10 -1 14 4 3 6 12 8 20 4 8 -3 15 0 15 6 0 17 45 13 71 -7 36 -28 74 -35
90 -16 12 15 9 20 -21 43 -19 14 -53 43 -76 64 -23 20 -46 37 -53 37 -6 0 -28
-15 -48 -34z"/>
<path d="M2670 1491 c0 -11 5 -23 10 -26 26 -16 7 -67 -70 -186 -44 -68 -93
-135 -108 -148 -15 -13 -20 -20 -12 -15 10 5 9 0 -4 -14 -10 -12 -23 -19 -27
-16 -5 3 -9 0 -9 -5 0 -6 -12 -11 -26 -11 -31 0 -84 50 -84 79 0 23 38 88 64
110 19 16 21 40 4 43 -7 0 -20 2 -28 3 -8 1 -23 -5 -32 -13 -10 -8 -18 -12
-18 -9 0 5 -11 -3 -82 -63 l-30 -26 21 -45 c28 -59 101 -129 176 -168 50 -27
69 -32 121 -30 61 2 63 3 97 48 19 25 57 80 84 121 84 129 127 181 166 201 21
11 37 25 34 32 -2 7 -29 26 -60 42 -31 17 -69 42 -84 56 -63 59 -103 74 -103
40z"/>
<path d="M3250 1139 c0 -44 -5 -51 -209 -256 -95 -96 -118 -113 -164 -122 -59
-12 -46 -36 46 -80 46 -23 89 -41 96 -41 9 0 11 14 6 54 -7 53 -6 55 35 100
44 48 64 56 74 31 3 -8 9 -14 14 -13 5 2 18 -6 28 -17 11 -12 15 -14 9 -5 -9
13 -8 13 7 2 9 -8 14 -20 12 -27 -3 -7 3 -18 14 -24 15 -8 20 -22 20 -56 1
-27 -3 -43 -8 -40 -6 3 -10 1 -10 -5 0 -6 -4 -8 -10 -5 -5 3 -10 2 -10 -4 0
-6 -6 -8 -14 -5 -17 7 -26 -24 -15 -54 6 -15 17 -22 33 -22 29 0 124 -40 166
-70 36 -25 80 -27 80 -2 0 9 -7 25 -15 36 -16 21 -20 190 -3 180 6 -4 8 12 4
42 -4 33 -3 41 3 24 6 -19 9 -8 13 50 3 41 6 104 6 140 1 54 4 67 21 79 39 25
24 62 -29 69 -14 1 -61 21 -105 42 -45 22 -84 40 -88 40 -4 0 -7 -18 -7 -41z"/>
<path d="M5654 1070 c-28 -16 -75 -33 -105 -37 -44 -7 -55 -12 -57 -29 -2 -14
6 -27 22 -38 26 -16 61 -75 68 -111 1 -11 9 -26 16 -34 7 -7 11 -19 8 -27 -3
-7 -1 -14 4 -16 5 -2 11 -12 13 -23 1 -11 6 -25 9 -30 6 -10 57 -140 58 -150
0 -3 3 -12 6 -20 4 -8 1 -29 -6 -45 -7 -16 -10 -36 -6 -45 8 -22 52 -18 75 6
11 12 34 22 55 23 20 2 44 10 54 19 9 8 31 19 47 23 17 4 46 15 65 24 19 10
51 21 70 25 39 8 73 33 64 47 -3 4 -7 49 -8 98 -3 92 -14 120 -46 120 -14 0
-18 -12 -23 -65 -10 -105 -49 -155 -122 -160 -30 -2 -55 9 -53 25 3 18 -15 49
-24 44 -7 -5 -9 -1 -5 9 3 9 2 19 -4 22 -5 4 -7 11 -4 16 4 5 1 9 -5 9 -6 0
-8 5 -5 10 3 6 1 10 -4 10 -6 0 -10 3 -9 8 1 4 -3 18 -9 32 -13 32 -63 169
-62 173 0 1 -3 10 -7 20 -4 11 0 25 11 37 21 23 16 54 -10 57 -11 2 -43 -10
-71 -27z"/>
<path d="M5147 943 c-11 -10 -246 -42 -320 -43 -77 0 -94 -16 -59 -53 26 -28
43 -72 36 -92 -4 -8 -1 -15 6 -15 7 0 10 -13 9 -33 -2 -18 0 -37 3 -42 4 -6 8
-55 9 -110 1 -55 7 -108 12 -118 5 -10 6 -25 3 -33 -3 -8 -5 -16 -6 -19 0 -3
-7 -19 -16 -37 -15 -30 -15 -32 2 -45 21 -16 73 -10 85 9 6 9 166 25 326 32
46 2 72 24 73 63 0 13 9 57 21 98 16 60 18 79 9 91 -23 27 -49 17 -59 -24 -15
-54 -61 -120 -96 -136 -16 -8 -49 -17 -72 -21 -57 -9 -78 13 -79 80 0 73 -13
132 -25 114 -6 -10 -8 -4 -6 18 1 17 5 29 10 26 4 -2 7 1 7 6 0 6 16 11 37 11
29 0 43 -7 74 -41 41 -44 72 -49 77 -11 2 12 -5 34 -16 49 -10 16 -22 43 -26
62 -12 63 -50 81 -79 38 -8 -12 -26 -23 -40 -25 -14 -1 -32 -3 -39 -4 -8 -2
-12 5 -10 21 2 15 0 21 -7 17 -7 -4 -11 1 -11 14 0 12 4 19 9 16 5 -3 11 4 15
17 5 20 11 22 76 22 l71 0 43 -47 c44 -48 72 -60 82 -34 3 7 -13 52 -36 100
-34 71 -45 86 -64 86 -12 0 -26 -3 -29 -7z"/>
<path d="M4247 923 c-12 -12 -7 -34 13 -60 16 -21 20 -41 20 -102 0 -56 -3
-72 -11 -61 -7 11 -9 -1 -4 -44 4 -36 3 -56 -3 -52 -13 8 -24 -66 -12 -78 13
-13 13 -46 -1 -46 -6 0 -8 -9 -4 -20 4 -12 2 -20 -5 -20 -6 0 -9 -4 -6 -9 3
-5 -1 -14 -9 -21 -8 -7 -15 -9 -15 -4 0 5 -4 3 -9 -5 -12 -19 -56 -7 -88 25
-26 26 -27 50 -7 137 6 27 5 28 -21 25 -22 -2 -34 -13 -52 -47 -13 -25 -30
-53 -39 -62 -9 -10 -14 -30 -12 -50 2 -28 12 -40 53 -67 28 -18 67 -35 88 -39
20 -3 40 -10 43 -14 7 -12 104 -12 104 0 0 5 17 12 37 16 42 8 106 51 111 75
2 8 9 27 16 42 8 14 11 39 8 54 -3 19 -1 25 7 20 9 -6 11 11 9 66 -6 159 0
215 27 244 47 50 36 61 -68 66 -57 3 -104 11 -124 21 -36 19 -37 19 -46 10z"/>
</g>
</svg>
